<mxfile host="app.diagrams.net" agent="Mozilla/5.0 (Windows NT 10.0; Win64; x64) AppleWebKit/537.36 (KHTML, like Gecko) Chrome/129.0.0.0 Safari/537.36" version="24.9.2">
  <diagram name="Page-1" id="2YBvvXClWsGukQMizWep">
    <mxGraphModel dx="983" dy="536" grid="1" gridSize="10" guides="1" tooltips="1" connect="1" arrows="1" fold="1" page="1" pageScale="1" pageWidth="850" pageHeight="1100" math="0" shadow="0">
      <root>
        <mxCell id="0" />
        <mxCell id="1" parent="0" />
        <mxCell id="aM9ryv3xv72pqoxQDRHE-5" value="Database" style="shape=umlLifeline;perimeter=lifelinePerimeter;whiteSpace=wrap;html=1;container=0;dropTarget=0;collapsible=0;recursiveResize=0;outlineConnect=0;portConstraint=eastwest;newEdgeStyle={&quot;edgeStyle&quot;:&quot;elbowEdgeStyle&quot;,&quot;elbow&quot;:&quot;vertical&quot;,&quot;curved&quot;:0,&quot;rounded&quot;:0};" parent="1" vertex="1">
          <mxGeometry x="620" y="128" width="100" height="482" as="geometry" />
        </mxCell>
        <mxCell id="aM9ryv3xv72pqoxQDRHE-6" value="" style="html=1;points=[];perimeter=orthogonalPerimeter;outlineConnect=0;targetShapes=umlLifeline;portConstraint=eastwest;newEdgeStyle={&quot;edgeStyle&quot;:&quot;elbowEdgeStyle&quot;,&quot;elbow&quot;:&quot;vertical&quot;,&quot;curved&quot;:0,&quot;rounded&quot;:0};" parent="aM9ryv3xv72pqoxQDRHE-5" vertex="1">
          <mxGeometry x="45" y="272" width="10" height="158" as="geometry" />
        </mxCell>
        <mxCell id="s9sT94iXjhivv4RPI7OD-8" style="edgeStyle=orthogonalEdgeStyle;rounded=0;orthogonalLoop=1;jettySize=auto;html=1;endArrow=none;endFill=0;dashed=1;" edge="1" parent="1" source="s9sT94iXjhivv4RPI7OD-4">
          <mxGeometry relative="1" as="geometry">
            <mxPoint x="135" y="870" as="targetPoint" />
          </mxGeometry>
        </mxCell>
        <mxCell id="s9sT94iXjhivv4RPI7OD-4" value="" style="shape=umlActor;verticalLabelPosition=bottom;verticalAlign=top;html=1;" vertex="1" parent="1">
          <mxGeometry x="120" y="120" width="30" height="60" as="geometry" />
        </mxCell>
        <mxCell id="s9sT94iXjhivv4RPI7OD-7" value="User" style="text;html=1;align=center;verticalAlign=middle;resizable=0;points=[];autosize=1;strokeColor=none;fillColor=none;" vertex="1" parent="1">
          <mxGeometry x="110" y="98" width="50" height="30" as="geometry" />
        </mxCell>
        <mxCell id="s9sT94iXjhivv4RPI7OD-9" value="GPS System" style="shape=umlLifeline;perimeter=lifelinePerimeter;whiteSpace=wrap;html=1;container=1;dropTarget=0;collapsible=0;recursiveResize=0;outlineConnect=0;portConstraint=eastwest;newEdgeStyle={&quot;edgeStyle&quot;:&quot;elbowEdgeStyle&quot;,&quot;elbow&quot;:&quot;vertical&quot;,&quot;curved&quot;:0,&quot;rounded&quot;:0};" vertex="1" parent="1">
          <mxGeometry x="210" y="128" width="100" height="282" as="geometry" />
        </mxCell>
        <mxCell id="s9sT94iXjhivv4RPI7OD-14" value="" style="html=1;points=[];perimeter=orthogonalPerimeter;outlineConnect=0;targetShapes=umlLifeline;portConstraint=eastwest;newEdgeStyle={&quot;edgeStyle&quot;:&quot;elbowEdgeStyle&quot;,&quot;elbow&quot;:&quot;vertical&quot;,&quot;curved&quot;:0,&quot;rounded&quot;:0};" vertex="1" parent="s9sT94iXjhivv4RPI7OD-9">
          <mxGeometry x="45" y="70" width="10" height="60" as="geometry" />
        </mxCell>
        <mxCell id="s9sT94iXjhivv4RPI7OD-15" style="edgeStyle=elbowEdgeStyle;rounded=0;orthogonalLoop=1;jettySize=auto;html=1;elbow=vertical;curved=0;endArrow=block;endFill=1;" edge="1" parent="s9sT94iXjhivv4RPI7OD-9" source="s9sT94iXjhivv4RPI7OD-14" target="s9sT94iXjhivv4RPI7OD-14">
          <mxGeometry relative="1" as="geometry" />
        </mxCell>
        <mxCell id="s9sT94iXjhivv4RPI7OD-17" value="" style="html=1;points=[];perimeter=orthogonalPerimeter;outlineConnect=0;targetShapes=umlLifeline;portConstraint=eastwest;newEdgeStyle={&quot;edgeStyle&quot;:&quot;elbowEdgeStyle&quot;,&quot;elbow&quot;:&quot;vertical&quot;,&quot;curved&quot;:0,&quot;rounded&quot;:0};" vertex="1" parent="s9sT94iXjhivv4RPI7OD-9">
          <mxGeometry x="45" y="182" width="10" height="60" as="geometry" />
        </mxCell>
        <mxCell id="s9sT94iXjhivv4RPI7OD-11" value="loop" style="shape=umlFrame;whiteSpace=wrap;html=1;pointerEvents=0;recursiveResize=0;container=1;collapsible=0;width=50;" vertex="1" parent="1">
          <mxGeometry x="10" y="190" width="720" height="660" as="geometry" />
        </mxCell>
        <mxCell id="s9sT94iXjhivv4RPI7OD-12" value="[every few&amp;nbsp;&lt;span style=&quot;background-color: initial;&quot;&gt;minutes]&lt;/span&gt;" style="text;align=center;html=1;" vertex="1" parent="s9sT94iXjhivv4RPI7OD-11">
          <mxGeometry width="100" height="20" relative="1" as="geometry">
            <mxPoint x="10" y="30" as="offset" />
          </mxGeometry>
        </mxCell>
        <mxCell id="s9sT94iXjhivv4RPI7OD-16" value="updateLocation()" style="text;html=1;align=center;verticalAlign=middle;resizable=0;points=[];autosize=1;strokeColor=none;fillColor=none;" vertex="1" parent="s9sT94iXjhivv4RPI7OD-11">
          <mxGeometry x="270" y="23" width="110" height="30" as="geometry" />
        </mxCell>
        <mxCell id="aM9ryv3xv72pqoxQDRHE-1" value="Notification Service" style="shape=umlLifeline;perimeter=lifelinePerimeter;whiteSpace=wrap;html=1;container=0;dropTarget=0;collapsible=0;recursiveResize=0;outlineConnect=0;portConstraint=eastwest;newEdgeStyle={&quot;edgeStyle&quot;:&quot;elbowEdgeStyle&quot;,&quot;elbow&quot;:&quot;vertical&quot;,&quot;curved&quot;:0,&quot;rounded&quot;:0};" parent="s9sT94iXjhivv4RPI7OD-11" vertex="1">
          <mxGeometry x="390" y="-62" width="100" height="602" as="geometry" />
        </mxCell>
        <mxCell id="aM9ryv3xv72pqoxQDRHE-2" value="" style="html=1;points=[];perimeter=orthogonalPerimeter;outlineConnect=0;targetShapes=umlLifeline;portConstraint=eastwest;newEdgeStyle={&quot;edgeStyle&quot;:&quot;elbowEdgeStyle&quot;,&quot;elbow&quot;:&quot;vertical&quot;,&quot;curved&quot;:0,&quot;rounded&quot;:0};" parent="aM9ryv3xv72pqoxQDRHE-1" vertex="1">
          <mxGeometry x="45" y="182" width="10" height="398" as="geometry" />
        </mxCell>
        <mxCell id="s9sT94iXjhivv4RPI7OD-26" style="edgeStyle=elbowEdgeStyle;rounded=0;orthogonalLoop=1;jettySize=auto;html=1;elbow=vertical;curved=0;dashed=1;endArrow=open;endFill=0;" edge="1" parent="s9sT94iXjhivv4RPI7OD-11">
          <mxGeometry relative="1" as="geometry">
            <mxPoint x="655" y="340.002380952381" as="sourcePoint" />
            <mxPoint x="445.0000000000001" y="340.002380952381" as="targetPoint" />
          </mxGeometry>
        </mxCell>
        <mxCell id="s9sT94iXjhivv4RPI7OD-19" value="return location" style="text;html=1;align=center;verticalAlign=middle;resizable=0;points=[];autosize=1;strokeColor=none;fillColor=none;" vertex="1" parent="s9sT94iXjhivv4RPI7OD-11">
          <mxGeometry x="290" y="128" width="100" height="30" as="geometry" />
        </mxCell>
        <mxCell id="s9sT94iXjhivv4RPI7OD-20" style="edgeStyle=elbowEdgeStyle;rounded=0;orthogonalLoop=1;jettySize=auto;html=1;elbow=vertical;curved=0;endArrow=block;endFill=1;" edge="1" parent="s9sT94iXjhivv4RPI7OD-11">
          <mxGeometry relative="1" as="geometry">
            <mxPoint x="445" y="210.0010344827586" as="sourcePoint" />
            <mxPoint x="654.9999999999998" y="210.0010344827586" as="targetPoint" />
          </mxGeometry>
        </mxCell>
        <mxCell id="s9sT94iXjhivv4RPI7OD-21" value="getNearbyLandmarks(location)" style="text;html=1;align=center;verticalAlign=middle;resizable=0;points=[];autosize=1;strokeColor=none;fillColor=none;" vertex="1" parent="s9sT94iXjhivv4RPI7OD-11">
          <mxGeometry x="450" y="188" width="190" height="30" as="geometry" />
        </mxCell>
        <mxCell id="s9sT94iXjhivv4RPI7OD-27" value="return Events" style="text;html=1;align=center;verticalAlign=middle;resizable=0;points=[];autosize=1;strokeColor=none;fillColor=none;" vertex="1" parent="s9sT94iXjhivv4RPI7OD-11">
          <mxGeometry x="500" y="318" width="90" height="30" as="geometry" />
        </mxCell>
        <mxCell id="s9sT94iXjhivv4RPI7OD-33" value="loop" style="shape=umlFrame;whiteSpace=wrap;html=1;pointerEvents=0;recursiveResize=0;container=1;collapsible=0;width=50;" vertex="1" parent="s9sT94iXjhivv4RPI7OD-11">
          <mxGeometry x="20" y="360" width="560" height="260" as="geometry" />
        </mxCell>
        <mxCell id="s9sT94iXjhivv4RPI7OD-34" value="[for each event that is happpening in less than 1 hour]" style="text;align=center;html=1;" vertex="1" parent="s9sT94iXjhivv4RPI7OD-33">
          <mxGeometry width="100" height="20" relative="1" as="geometry">
            <mxPoint x="150" as="offset" />
          </mxGeometry>
        </mxCell>
        <mxCell id="s9sT94iXjhivv4RPI7OD-32" value="sendNotification()" style="text;html=1;align=center;verticalAlign=middle;resizable=0;points=[];autosize=1;strokeColor=none;fillColor=none;" vertex="1" parent="s9sT94iXjhivv4RPI7OD-33">
          <mxGeometry x="190" y="100" width="120" height="30" as="geometry" />
        </mxCell>
        <mxCell id="s9sT94iXjhivv4RPI7OD-30" value="opt" style="shape=umlFrame;whiteSpace=wrap;html=1;pointerEvents=0;recursiveResize=0;container=1;collapsible=0;width=50;" vertex="1" parent="s9sT94iXjhivv4RPI7OD-33">
          <mxGeometry x="30" y="50" width="470" height="170" as="geometry" />
        </mxCell>
        <mxCell id="s9sT94iXjhivv4RPI7OD-28" value="" style="html=1;points=[];perimeter=orthogonalPerimeter;outlineConnect=0;targetShapes=umlLifeline;portConstraint=eastwest;newEdgeStyle={&quot;edgeStyle&quot;:&quot;elbowEdgeStyle&quot;,&quot;elbow&quot;:&quot;vertical&quot;,&quot;curved&quot;:0,&quot;rounded&quot;:0};" vertex="1" parent="s9sT94iXjhivv4RPI7OD-30">
          <mxGeometry x="70" y="80" width="10" height="30" as="geometry" />
        </mxCell>
        <mxCell id="s9sT94iXjhivv4RPI7OD-29" style="edgeStyle=elbowEdgeStyle;rounded=0;orthogonalLoop=1;jettySize=auto;html=1;elbow=vertical;curved=0;" edge="1" parent="s9sT94iXjhivv4RPI7OD-30">
          <mxGeometry relative="1" as="geometry">
            <mxPoint x="385" y="80.15333333333352" as="sourcePoint" />
            <mxPoint x="80" y="80.15333333333352" as="targetPoint" />
          </mxGeometry>
        </mxCell>
        <mxCell id="s9sT94iXjhivv4RPI7OD-31" value="[if notification for event&amp;nbsp;&lt;div&gt;&lt;span style=&quot;background-color: initial;&quot;&gt;hasn&#39;t been sent]&lt;/span&gt;&lt;/div&gt;" style="text;align=center;html=1;" vertex="1" parent="s9sT94iXjhivv4RPI7OD-30">
          <mxGeometry width="100" height="20" relative="1" as="geometry">
            <mxPoint x="90" as="offset" />
          </mxGeometry>
        </mxCell>
        <mxCell id="aM9ryv3xv72pqoxQDRHE-9" value="getLocation()" style="html=1;verticalAlign=bottom;endArrow=block;edgeStyle=elbowEdgeStyle;elbow=vertical;curved=0;rounded=0;" parent="1" source="aM9ryv3xv72pqoxQDRHE-2" target="s9sT94iXjhivv4RPI7OD-17" edge="1">
          <mxGeometry relative="1" as="geometry">
            <mxPoint x="469.9999999999998" y="392" as="sourcePoint" />
            <Array as="points">
              <mxPoint x="385" y="310" />
            </Array>
            <mxPoint x="270" y="310" as="targetPoint" />
          </mxGeometry>
        </mxCell>
        <mxCell id="s9sT94iXjhivv4RPI7OD-18" style="edgeStyle=elbowEdgeStyle;rounded=0;orthogonalLoop=1;jettySize=auto;html=1;elbow=vertical;curved=0;dashed=1;endArrow=open;endFill=0;" edge="1" parent="1" source="s9sT94iXjhivv4RPI7OD-17" target="aM9ryv3xv72pqoxQDRHE-2">
          <mxGeometry relative="1" as="geometry" />
        </mxCell>
        <mxCell id="s9sT94iXjhivv4RPI7OD-22" style="edgeStyle=elbowEdgeStyle;rounded=0;orthogonalLoop=1;jettySize=auto;html=1;elbow=vertical;curved=0;endArrow=open;endFill=0;dashed=1;" edge="1" parent="1" source="aM9ryv3xv72pqoxQDRHE-6" target="aM9ryv3xv72pqoxQDRHE-2">
          <mxGeometry relative="1" as="geometry">
            <Array as="points">
              <mxPoint x="620" y="440" />
            </Array>
          </mxGeometry>
        </mxCell>
        <mxCell id="s9sT94iXjhivv4RPI7OD-23" value="return Landmarks" style="edgeLabel;html=1;align=center;verticalAlign=middle;resizable=0;points=[];" vertex="1" connectable="0" parent="s9sT94iXjhivv4RPI7OD-22">
          <mxGeometry x="0.199" y="2" relative="1" as="geometry">
            <mxPoint x="16" y="-12" as="offset" />
          </mxGeometry>
        </mxCell>
        <mxCell id="s9sT94iXjhivv4RPI7OD-24" style="edgeStyle=elbowEdgeStyle;rounded=0;orthogonalLoop=1;jettySize=auto;html=1;elbow=vertical;curved=0;endArrow=block;endFill=1;" edge="1" parent="1" source="aM9ryv3xv72pqoxQDRHE-2" target="aM9ryv3xv72pqoxQDRHE-6">
          <mxGeometry relative="1" as="geometry">
            <Array as="points">
              <mxPoint x="600" y="490" />
            </Array>
          </mxGeometry>
        </mxCell>
        <mxCell id="s9sT94iXjhivv4RPI7OD-25" value="getEventsAssociated(Landmarks)" style="edgeLabel;html=1;align=center;verticalAlign=middle;resizable=0;points=[];" vertex="1" connectable="0" parent="s9sT94iXjhivv4RPI7OD-24">
          <mxGeometry x="-0.1114" relative="1" as="geometry">
            <mxPoint x="7" y="-10" as="offset" />
          </mxGeometry>
        </mxCell>
      </root>
    </mxGraphModel>
  </diagram>
</mxfile>
